<?xml version="1.0" encoding="UTF-8"?>
<svg xmlns="http://www.w3.org/2000/svg" width="122.787" height="99.56" viewBox="0 0 122.787 99.56">
<g transform="translate(4, 30.86) scale(1, -1)">
<path transform="translate(52.393 13.54)" d="M8.38 0L8.38 0.62L7.74 0.62C5.94 0.62 5.88 0.84 5.88 1.58L5.88 12.8C5.88 13.28 5.88 13.32 5.42 13.32C4.18 12.04 2.42 12.04 1.78 12.04L1.78 11.42C2.18 11.42 3.36 11.42 4.4 11.94L4.4 1.58C4.4 0.86 4.34 0.62 2.54 0.62L1.9 0.62L1.9 0C2.6 0.06 4.34 0.06 5.14 0.06C5.94 0.06 7.68 0.06 8.38 0Z" fill="#000000"/>
<path transform="translate(0 -24.66)" d="M8.38 0L8.38 0.62L7.74 0.62C5.94 0.62 5.88 0.84 5.88 1.58L5.88 12.8C5.88 13.28 5.88 13.32 5.42 13.32C4.18 12.04 2.42 12.04 1.78 12.04L1.78 11.42C2.18 11.42 3.36 11.42 4.4 11.94L4.4 1.58C4.4 0.86 4.34 0.62 2.54 0.62L1.9 0.62L1.9 0C2.6 0.06 4.34 0.06 5.14 0.06C5.94 0.06 7.68 0.06 8.38 0Z" fill="#000000"/>
<path transform="translate(14.444 -24.66)" d="M14.44 5C14.44 5.22 14.26 5.4 14.04 5.4L8.18 5.4L8.18 11.26C8.18 11.48 8 11.66 7.78 11.66C7.56 11.66 7.38 11.48 7.38 11.26L7.38 5.4L1.52 5.4C1.3 5.4 1.12 5.22 1.12 5C1.12 4.78 1.3 4.6 1.52 4.6L7.38 4.6L7.38 -1.26C7.38 -1.48 7.56 -1.66 7.78 -1.66C8 -1.66 8.18 -1.48 8.18 -1.26L8.18 4.6L14.04 4.6C14.26 4.6 14.44 4.78 14.44 5Z" fill="#000000"/>
<path transform="translate(69.618 -11.12)" d="M8.38 0L8.38 0.62L7.74 0.62C5.94 0.62 5.88 0.84 5.88 1.58L5.88 12.8C5.88 13.28 5.88 13.32 5.42 13.32C4.18 12.04 2.42 12.04 1.78 12.04L1.78 11.42C2.18 11.42 3.36 11.42 4.4 11.94L4.4 1.58C4.4 0.86 4.34 0.62 2.54 0.62L1.9 0.62L1.9 0C2.6 0.06 4.34 0.06 5.14 0.06C5.94 0.06 7.68 0.06 8.38 0Z" fill="#000000"/>
<path transform="translate(34.449 -49.32)" d="M8.98 3.48L8.48 3.48C8.38 2.88 8.24 2 8.04 1.7C7.9 1.54 6.58 1.54 6.14 1.54L2.54 1.54L4.66 3.6C7.78 6.36 8.98 7.44 8.98 9.44C8.98 11.72 7.18 13.32 4.74 13.32C2.48 13.32 1 11.48 1 9.7C1 8.58 2 8.58 2.06 8.58C2.4 8.58 3.1 8.82 3.1 9.64C3.1 10.16 2.74 10.68 2.04 10.68C1.88 10.68 1.84 10.68 1.78 10.66C2.24 11.96 3.32 12.7 4.48 12.7C6.3 12.7 7.16 11.08 7.16 9.44C7.16 7.84 6.16 6.26 5.06 5.02L1.22 0.74C1 0.52 1 0.48 1 0L8.42 0Z" fill="#000000"/>
<path transform="translate(48.893 -49.32)" d="M14.44 5C14.44 5.22 14.26 5.4 14.04 5.4L8.18 5.4L8.18 11.26C8.18 11.48 8 11.66 7.78 11.66C7.56 11.66 7.38 11.48 7.38 11.26L7.38 5.4L1.52 5.4C1.3 5.4 1.12 5.22 1.12 5C1.12 4.78 1.3 4.6 1.52 4.6L7.38 4.6L7.38 -1.26C7.38 -1.48 7.56 -1.66 7.78 -1.66C8 -1.66 8.18 -1.48 8.18 -1.26L8.18 4.6L14.04 4.6C14.26 4.6 14.44 4.78 14.44 5Z" fill="#000000"/>
<path transform="translate(86.842 -35.78)" d="M8.38 0L8.38 0.62L7.74 0.62C5.94 0.62 5.88 0.84 5.88 1.58L5.88 12.8C5.88 13.28 5.88 13.32 5.42 13.32C4.18 12.04 2.42 12.04 1.78 12.04L1.78 11.42C2.18 11.42 3.36 11.42 4.4 11.94L4.4 1.58C4.4 0.86 4.34 0.62 2.54 0.62L1.9 0.62L1.9 0C2.6 0.06 4.34 0.06 5.14 0.06C5.94 0.06 7.68 0.06 8.38 0Z" fill="#000000"/>
<path transform="translate(68.898 -63.04)" d="M9.14 3.42C9.14 5.06 7.88 6.62 5.8 7.04C7.44 7.58 8.6 8.98 8.6 10.56C8.6 12.2 6.84 13.32 4.92 13.32C2.9 13.32 1.38 12.12 1.38 10.6C1.38 9.94 1.82 9.56 2.4 9.56C3.02 9.56 3.42 10 3.42 10.58C3.42 11.58 2.48 11.58 2.18 11.58C2.8 12.56 4.12 12.82 4.84 12.82C5.66 12.82 6.76 12.38 6.76 10.58C6.76 10.34 6.72 9.18 6.2 8.3C5.6 7.34 4.92 7.28 4.42 7.26C4.26 7.24 3.78 7.2 3.64 7.2C3.48 7.18 3.34 7.16 3.34 6.96C3.34 6.74 3.48 6.74 3.82 6.74L4.7 6.74C6.34 6.74 7.08 5.38 7.08 3.42C7.08 0.7 5.7 0.12 4.82 0.12C3.96 0.12 2.46 0.46 1.76 1.64C2.46 1.54 3.08 1.98 3.08 2.74C3.08 3.46 2.54 3.86 1.96 3.86C1.48 3.86 0.84 3.58 0.84 2.7C0.84 0.88 2.7 -0.44 4.88 -0.44C7.32 -0.44 9.14 1.38 9.14 3.42Z" fill="#000000"/>
<path transform="translate(83.342 -63.04)" d="M14.44 5C14.44 5.22 14.26 5.4 14.04 5.4L8.18 5.4L8.18 11.26C8.18 11.48 8 11.66 7.78 11.66C7.56 11.66 7.38 11.48 7.38 11.26L7.38 5.4L1.52 5.4C1.3 5.4 1.12 5.22 1.12 5C1.12 4.78 1.3 4.6 1.52 4.6L7.38 4.6L7.38 -1.26C7.38 -1.48 7.56 -1.66 7.78 -1.66C8 -1.66 8.18 -1.48 8.18 -1.26L8.18 4.6L14.04 4.6C14.26 4.6 14.44 4.78 14.44 5Z" fill="#000000"/>
<path transform="translate(103.347 -63.04)" d="M10.54 7.52C10.54 8.56 9.36 8.84 8.68 8.84C7.52 8.84 6.82 7.78 6.58 7.32C6.08 8.64 5 8.84 4.42 8.84C2.34 8.84 1.2 6.26 1.2 5.76C1.2 5.56 1.44 5.56 1.44 5.56C1.6 5.56 1.66 5.6 1.7 5.78C2.38 7.9 3.7 8.4 4.38 8.4C4.76 8.4 5.46 8.22 5.46 7.06C5.46 6.44 5.12 5.1 4.38 2.3C4.06 1.06 3.36 0.22 2.48 0.22C2.36 0.22 1.9 0.22 1.48 0.48C1.98 0.58 2.42 1 2.42 1.56C2.42 2.1 1.98 2.26 1.68 2.26C1.08 2.26 0.58 1.74 0.58 1.1C0.58 0.18 1.58 -0.22 2.46 -0.22C3.78 -0.22 4.5 1.18 4.56 1.3C4.8 0.56 5.52 -0.22 6.72 -0.22C8.78 -0.22 9.92 2.36 9.92 2.86C9.92 3.06 9.74 3.06 9.68 3.06C9.5 3.06 9.46 2.98 9.42 2.84C8.76 0.7 7.4 0.22 6.76 0.22C5.98 0.22 5.66 0.86 5.66 1.54C5.66 1.98 5.78 2.42 6 3.3L6.68 6.04C6.8 6.56 7.26 8.4 8.66 8.4C8.76 8.4 9.24 8.4 9.66 8.14C9.1 8.04 8.7 7.54 8.7 7.06C8.7 6.74 8.92 6.36 9.46 6.36C9.9 6.36 10.54 6.72 10.54 7.52Z" fill="#000000"/>
<line x1="68.898" y1="-44.32" x2="114.787" y2="-44.32" stroke="#000000" stroke-width="0.8" stroke-linecap="butt"/>
<line x1="34.449" y1="-19.66" x2="114.787" y2="-19.66" stroke="#000000" stroke-width="0.8" stroke-linecap="butt"/>
<line x1="0" y1="5" x2="114.787" y2="5" stroke="#000000" stroke-width="0.8" stroke-linecap="butt"/>
</g>
</svg>